<svg width="1024" height="1024" viewBox="0 0 1024 1024" fill="none" xmlns="http://www.w3.org/2000/svg">
  <defs>
    <linearGradient id="base" x1="164" y1="128" x2="864" y2="896" gradientUnits="userSpaceOnUse">
      <stop stop-color="#181B26"/>
      <stop offset="1" stop-color="#090B12"/>
    </linearGradient>
    <radialGradient id="halo" cx="0" cy="0" r="1" gradientUnits="userSpaceOnUse" gradientTransform="translate(512 512) rotate(90) scale(224)">
      <stop stop-color="#F6B93B" stop-opacity="0.14"/>
      <stop offset="1" stop-color="#F6B93B" stop-opacity="0"/>
    </radialGradient>
    <filter id="shadow" x="68" y="72" width="888" height="896" filterUnits="userSpaceOnUse" color-interpolation-filters="sRGB">
      <feFlood flood-opacity="0" result="BackgroundImageFix"/>
      <feColorMatrix in="SourceAlpha" type="matrix" values="0 0 0 0 0 0 0 0 0 0 0 0 0 0 0 0 0 0 127 0" result="hardAlpha"/>
      <feOffset dy="28"/>
      <feGaussianBlur stdDeviation="34"/>
      <feColorMatrix type="matrix" values="0 0 0 0 0 0 0 0 0 0 0 0 0 0 0 0 0 0 0.34 0"/>
      <feBlend mode="normal" in2="BackgroundImageFix" result="effect1_dropShadow_1_1"/>
      <feBlend mode="normal" in="SourceGraphic" in2="effect1_dropShadow_1_1" result="shape"/>
    </filter>
    <filter id="glow" x="214" y="214" width="596" height="596" filterUnits="userSpaceOnUse" color-interpolation-filters="sRGB">
      <feFlood flood-opacity="0" result="BackgroundImageFix"/>
      <feBlend mode="normal" in="SourceGraphic" in2="BackgroundImageFix" result="shape"/>
      <feGaussianBlur stdDeviation="10" result="effect1_foregroundBlur_1_1"/>
    </filter>
  </defs>

  <g filter="url(#shadow)">
    <rect x="122" y="106" width="780" height="780" rx="176" fill="url(#base)"/>
    <rect x="123.5" y="107.5" width="777" height="777" rx="174.5" stroke="#2D3144" stroke-width="3"/>
  </g>

  <circle cx="512" cy="512" r="224" fill="url(#halo)"/>

  <g filter="url(#glow)" fill="#F6B93B">
    <circle cx="512" cy="332" r="18" opacity="0.62"/>
    <circle cx="634" cy="382" r="20" opacity="0.88"/>
    <circle cx="696" cy="500" r="16" opacity="0.7"/>
    <circle cx="666" cy="626" r="18" opacity="0.84"/>
    <circle cx="540" cy="706" r="22" opacity="0.94"/>
    <circle cx="396" cy="688" r="17" opacity="0.72"/>
    <circle cx="312" cy="576" r="20" opacity="0.9"/>
    <circle cx="326" cy="434" r="15" opacity="0.66"/>
    <circle cx="424" cy="352" r="19" opacity="0.8"/>
    <circle cx="512" cy="512" r="26" opacity="0.96"/>
    <circle cx="578" cy="556" r="13" opacity="0.74"/>
    <circle cx="454" cy="590" r="12" opacity="0.68"/>
  </g>
</svg>
